<svg width="86" height="87" viewBox="0 0 86 87" fill="none" xmlns="http://www.w3.org/2000/svg">
<rect x="0.5" y="7.5" width="79" height="79" rx="5.5" fill="#F9F9F9" stroke="#49D0FF"/>
<path d="M27.4407 34.2C27.4407 32.4327 28.8825 31 30.661 31H55.7797C57.5582 31 59 32.4327 59 34.2V50.2C59 51.9673 57.5582 53.4 55.7797 53.4H52.5593M27.4407 47H52.5593M39.678 56.6H46.1186M52.5593 59.8C52.5593 61.5673 51.1175 63 49.339 63H24.2203C22.4418 63 21 61.5673 21 59.8V43.8C21 42.0327 22.4418 40.6 24.2203 40.6H49.339C51.1175 40.6 52.5593 42.0327 52.5593 43.8V59.8Z" stroke="#121214" stroke-width="2" stroke-miterlimit="10" stroke-linecap="round" stroke-linejoin="round"/>
<circle cx="74" cy="12" r="12" fill="#49D0FF"/>
<path fill-rule="evenodd" clip-rule="evenodd" d="M78.7593 9.34923C79.1187 9.76855 79.0701 10.3999 78.6508 10.7593L73.9841 14.7593C73.6097 15.0803 73.057 15.0803 72.6826 14.7593L70.3492 12.7593C69.9299 12.3999 69.8813 11.7686 70.2408 11.3492C70.6002 10.9299 71.2315 10.8813 71.6508 11.2408L73.3334 12.6829L77.3492 9.24076C77.7686 8.88134 78.3999 8.9299 78.7593 9.34923Z" fill="white"/>
</svg>
