<svg width="16" height="17" viewBox="0 0 16 17" fill="none" xmlns="http://www.w3.org/2000/svg">
<g clip-path="url(#clip0_396_7313)">
<path d="M14 1.5C14.2652 1.5 14.5196 1.60536 14.7071 1.79289C14.8946 1.98043 15 2.23478 15 2.5V14.5C15 14.7652 14.8946 15.0196 14.7071 15.2071C14.5196 15.3946 14.2652 15.5 14 15.5H2C1.73478 15.5 1.48043 15.3946 1.29289 15.2071C1.10536 15.0196 1 14.7652 1 14.5V2.5C1 2.23478 1.10536 1.98043 1.29289 1.79289C1.48043 1.60536 1.73478 1.5 2 1.5H14ZM2 0.5C1.46957 0.5 0.960859 0.710714 0.585786 1.08579C0.210714 1.46086 0 1.96957 0 2.5L0 14.5C0 15.0304 0.210714 15.5391 0.585786 15.9142C0.960859 16.2893 1.46957 16.5 2 16.5H14C14.5304 16.5 15.0391 16.2893 15.4142 15.9142C15.7893 15.5391 16 15.0304 16 14.5V2.5C16 1.96957 15.7893 1.46086 15.4142 1.08579C15.0391 0.710714 14.5304 0.5 14 0.5H2Z" fill="#303030"/>
<path d="M4.64689 5.14592C4.69334 5.09935 4.74851 5.06241 4.80926 5.0372C4.87001 5.012 4.93513 4.99902 5.00089 4.99902C5.06666 4.99902 5.13178 5.012 5.19253 5.0372C5.25327 5.06241 5.30845 5.09935 5.35489 5.14592L8.00089 7.79292L10.6469 5.14592C10.6934 5.09943 10.7486 5.06255 10.8093 5.03739C10.87 5.01223 10.9351 4.99929 11.0009 4.99929C11.0666 4.99929 11.1317 5.01223 11.1925 5.03739C11.2532 5.06255 11.3084 5.09943 11.3549 5.14592C11.4014 5.1924 11.4383 5.24759 11.4634 5.30833C11.4886 5.36907 11.5015 5.43417 11.5015 5.49992C11.5015 5.56566 11.4886 5.63076 11.4634 5.6915C11.4383 5.75224 11.4014 5.80743 11.3549 5.85392L8.70789 8.49992L11.3549 11.1459C11.4014 11.1924 11.4383 11.2476 11.4634 11.3083C11.4886 11.3691 11.5015 11.4342 11.5015 11.4999C11.5015 11.5657 11.4886 11.6308 11.4634 11.6915C11.4383 11.7522 11.4014 11.8074 11.3549 11.8539C11.3084 11.9004 11.2532 11.9373 11.1925 11.9624C11.1317 11.9876 11.0666 12.0005 11.0009 12.0005C10.9351 12.0005 10.87 11.9876 10.8093 11.9624C10.7486 11.9373 10.6934 11.9004 10.6469 11.8539L8.00089 9.20692L5.35489 11.8539C5.30841 11.9004 5.25322 11.9373 5.19248 11.9624C5.13174 11.9876 5.06664 12.0005 5.00089 12.0005C4.93515 12.0005 4.87005 11.9876 4.80931 11.9624C4.74857 11.9373 4.69338 11.9004 4.64689 11.8539C4.60041 11.8074 4.56353 11.7522 4.53837 11.6915C4.51321 11.6308 4.50026 11.5657 4.50026 11.4999C4.50026 11.4342 4.51321 11.3691 4.53837 11.3083C4.56353 11.2476 4.60041 11.1924 4.64689 11.1459L7.29389 8.49992L4.64689 5.85392C4.60033 5.80747 4.56339 5.7523 4.53818 5.69155C4.51297 5.63081 4.5 5.56568 4.5 5.49992C4.5 5.43415 4.51297 5.36903 4.53818 5.30828C4.56339 5.24754 4.60033 5.19236 4.64689 5.14592Z" fill="#303030"/>
</g>
<defs>
<clipPath id="clip0_396_7313">
<rect width="16" height="16" fill="white" transform="translate(0 0.5)"/>
</clipPath>
</defs>
</svg>
