<svg width="16" height="17" viewBox="0 0 16 17" fill="none" xmlns="http://www.w3.org/2000/svg">
<g clip-path="url(#clip0_396_7306)">
<path d="M12.8538 0.645905C12.76 0.552169 12.6329 0.499512 12.5003 0.499512C12.3677 0.499512 12.2406 0.552169 12.1468 0.645905L10.4998 2.2929L14.2068 5.99991L15.8538 4.3539C15.9004 4.30746 15.9373 4.25228 15.9625 4.19154C15.9877 4.13079 16.0007 4.06567 16.0007 3.9999C16.0007 3.93414 15.9877 3.86902 15.9625 3.80827C15.9373 3.74753 15.9004 3.69235 15.8538 3.6459L12.8538 0.645905ZM13.4998 6.7069L9.79281 2.9999L3.29281 9.4999H3.49981C3.63241 9.4999 3.75959 9.55258 3.85336 9.64635C3.94713 9.74012 3.99981 9.8673 3.99981 9.9999V10.4999H4.49981C4.63241 10.4999 4.75959 10.5526 4.85336 10.6464C4.94713 10.7401 4.99981 10.8673 4.99981 10.9999V11.4999H5.49981C5.63241 11.4999 5.75959 11.5526 5.85336 11.6464C5.94713 11.7401 5.99981 11.8673 5.99981 11.9999V12.4999H6.49981C6.63241 12.4999 6.75959 12.5526 6.85336 12.6464C6.94713 12.7401 6.99981 12.8673 6.99981 12.9999V13.2069L13.4998 6.7069ZM6.03181 14.1749C6.01076 14.119 5.99993 14.0597 5.99981 13.9999V13.4999H5.49981C5.3672 13.4999 5.24002 13.4472 5.14625 13.3535C5.05248 13.2597 4.99981 13.1325 4.99981 12.9999V12.4999H4.49981C4.3672 12.4999 4.24002 12.4472 4.14625 12.3535C4.05248 12.2597 3.99981 12.1325 3.99981 11.9999V11.4999H3.49981C3.3672 11.4999 3.24002 11.4472 3.14625 11.3535C3.05248 11.2597 2.99981 11.1325 2.99981 10.9999V10.4999H2.49981C2.44003 10.4998 2.38075 10.489 2.32481 10.4679L2.14581 10.6459C2.09816 10.6939 2.06073 10.751 2.03581 10.8139L0.0358061 15.8139C-0.000564594 15.9048 -0.0094681 16.0043 0.0101994 16.1002C0.0298668 16.1961 0.0772403 16.2841 0.146447 16.3533C0.215653 16.4225 0.303649 16.4698 0.399526 16.4895C0.495402 16.5092 0.594942 16.5003 0.685806 16.4639L5.68581 14.4639C5.74867 14.439 5.80582 14.4016 5.85381 14.3539L6.03181 14.1749Z" fill="#303030"/>
</g>
<defs>
<clipPath id="clip0_396_7306">
<rect width="16" height="16" fill="white" transform="translate(0 0.5)"/>
</clipPath>
</defs>
</svg>
