<svg width="19" height="20" viewBox="0 0 19 20" fill="none" xmlns="http://www.w3.org/2000/svg">
<path d="M12.2143 4.57143C12.2143 5.65124 11.7853 6.68682 11.0218 7.45036C10.2583 8.2139 9.22267 8.64286 8.14286 8.64286C7.06305 8.64286 6.02746 8.2139 5.26392 7.45036C4.50038 6.68682 4.07143 5.65124 4.07143 4.57143C4.07143 3.49162 4.50038 2.45603 5.26392 1.69249C6.02746 0.928953 7.06305 0.5 8.14286 0.5C9.22267 0.5 10.2583 0.928953 11.0218 1.69249C11.7853 2.45603 12.2143 3.49162 12.2143 4.57143ZM8.14286 7.28571C8.86273 7.28571 9.55312 6.99975 10.0621 6.49072C10.5712 5.98169 10.8571 5.2913 10.8571 4.57143C10.8571 3.85156 10.5712 3.16117 10.0621 2.65214C9.55312 2.14311 8.86273 1.85714 8.14286 1.85714C7.42298 1.85714 6.73259 2.14311 6.22357 2.65214C5.71454 3.16117 5.42857 3.85156 5.42857 4.57143C5.42857 5.2913 5.71454 5.98169 6.22357 6.49072C6.73259 6.99975 7.42298 7.28571 8.14286 7.28571ZM8.49028 16.7857C8.33459 16.345 8.23031 15.8878 8.1795 15.4231H1.35714C1.3585 15.0893 1.56614 14.085 2.48629 13.1649C3.37114 12.28 5.03636 11.3571 8.14286 11.3571C8.49571 11.3571 8.83093 11.3694 9.14714 11.3911C9.45386 10.9283 9.82028 10.5089 10.2383 10.1452C9.6045 10.0516 8.90829 10 8.14286 10C1.35714 10 0 14.0714 0 15.4286C0 16.7857 1.35714 16.7857 1.35714 16.7857H8.49028ZM13.4167 10.6243C13.661 9.79236 14.839 9.79236 15.0846 10.6243L15.143 10.8251C15.1794 10.9497 15.2434 11.0646 15.33 11.1612C15.4167 11.2578 15.524 11.3338 15.6439 11.3836C15.7638 11.4333 15.8933 11.4555 16.0229 11.4486C16.1526 11.4417 16.279 11.4058 16.3929 11.3436L16.5775 11.2431C17.3389 10.8279 18.1721 11.6611 17.7582 12.4225L17.6564 12.6071C17.5945 12.721 17.5588 12.8473 17.552 12.9767C17.5452 13.1062 17.5675 13.2355 17.6172 13.3553C17.6669 13.475 17.7428 13.5821 17.8393 13.6687C17.9358 13.7553 18.0505 13.8191 18.1749 13.8556L18.3771 13.9167C19.2076 14.161 19.2076 15.339 18.3771 15.5846L18.1735 15.643C18.0491 15.6798 17.9346 15.7439 17.8383 15.8307C17.7419 15.9175 17.6663 16.0248 17.6168 16.1447C17.5673 16.2645 17.5454 16.394 17.5524 16.5234C17.5595 16.6529 17.5955 16.7792 17.6578 16.8929L17.7582 17.0775C18.1721 17.8389 17.3389 18.6721 16.5775 18.2582L16.3929 18.1564C16.279 18.0945 16.1527 18.0588 16.0233 18.052C15.8938 18.0452 15.7645 18.0675 15.6447 18.1172C15.525 18.1669 15.4179 18.2428 15.3313 18.3393C15.2447 18.4358 15.1809 18.5505 15.1444 18.6749L15.0833 18.8771C14.839 19.7076 13.661 19.7076 13.4154 18.8771L13.357 18.6735C13.3202 18.5491 13.2561 18.4346 13.1693 18.3383C13.0825 18.2419 12.9752 18.1663 12.8553 18.1168C12.7355 18.0673 12.606 18.0454 12.4766 18.0524C12.3471 18.0595 12.2208 18.0955 12.1071 18.1578L11.9225 18.2582C11.1611 18.6721 10.3279 17.8389 10.7418 17.0775L10.8436 16.8929C10.9055 16.779 10.9412 16.6527 10.948 16.5233C10.9548 16.3938 10.9325 16.2645 10.8828 16.1447C10.8331 16.025 10.7572 15.9179 10.6607 15.8313C10.5642 15.7447 10.4495 15.6809 10.3251 15.6444L10.1243 15.5833C9.29236 15.339 9.29236 14.161 10.1243 13.9154L10.3251 13.857C10.4497 13.8205 10.5646 13.7566 10.6612 13.67C10.7578 13.5833 10.8338 13.476 10.8836 13.3561C10.9333 13.2362 10.9555 13.1067 10.9486 12.9771C10.9417 12.8474 10.9058 12.721 10.8436 12.6071L10.7431 12.4225C10.3279 11.6611 11.1611 10.8279 11.9225 11.2418L12.1071 11.3436C12.221 11.4055 12.3473 11.4412 12.4767 11.448C12.6062 11.4548 12.7355 11.4325 12.8553 11.3828C12.975 11.3331 13.0821 11.2572 13.1687 11.1607C13.2553 11.0642 13.3191 10.9495 13.3556 10.8251L13.4167 10.6243ZM16.2857 14.75C16.2857 14.4827 16.2331 14.2179 16.1308 13.971C16.0285 13.724 15.8785 13.4996 15.6895 13.3105C15.5004 13.1215 15.276 12.9715 15.029 12.8692C14.782 12.7669 14.5173 12.7143 14.25 12.7143C13.9827 12.7143 13.7179 12.7669 13.471 12.8692C13.224 12.9715 12.9996 13.1215 12.8105 13.3105C12.6215 13.4996 12.4715 13.724 12.3692 13.971C12.2669 14.2179 12.2143 14.4827 12.2143 14.75C12.2143 15.2899 12.4288 15.8077 12.8105 16.1895C13.1923 16.5712 13.7101 16.7857 14.25 16.7857C14.7899 16.7857 15.3077 16.5712 15.6895 16.1895C16.0712 15.8077 16.2857 15.2899 16.2857 14.75Z" fill="#B0B0B0"/>
</svg>
